<svg xmlns="http://www.w3.org/2000/svg" width="16" height="16" fill="currentColor" viewBox="0 0 16 16" aria-hidden="true" version="1.1"  xmlns:xlink="http://www.w3.org/1999/xlink">
<defs>
<symbol id="icon-play3" viewBox="0 0 32 32">
<path d="M6 4l20 12-20 12z"></path>
</symbol>
<symbol id="icon-pause2" viewBox="0 0 32 32">
<path d="M4 4h10v24h-10zM18 4h10v24h-10z"></path>
</symbol>
<symbol id="icon-add" viewBox="0 0 16 16">
  <path d="M2 0a2 2 0 0 0-2 2v12a2 2 0 0 0 2 2h12a2 2 0 0 0 2-2V2a2 2 0 0 0-2-2H2zm6.5 4.5v3h3a.5.5 0 0 1 0 1h-3v3a.5.5 0 0 1-1 0v-3h-3a.5.5 0 0 1 0-1h3v-3a.5.5 0 0 1 1 0z"/>
</symbol>
<symbol id="icon-grid" viewBox="0 0 32 32" >
<path d="M13.6 6.4V11.2H18.4V6.4H13.6ZM20.8 6.4V11.2H25.6V6.4H20.8ZM20.8 13.6V18.4H25.6V13.6H20.8ZM20.8 20.8V25.6H25.6V20.8H20.8ZM18.4 25.6V20.8H13.6V25.6H18.4ZM11.2 25.6V20.8H6.4V25.6H11.2ZM11.2 18.4V13.6H6.4V18.4H11.2ZM11.2 11.2V6.4H6.4V11.2H11.2ZM13.6 18.4H18.4V13.6H13.6V18.4ZM6.4 4H25.6C26.2365 4 26.847 4.25286 27.2971 4.70294C27.7471 5.15303 28 5.76348 28 6.4V25.6C28 26.2365 27.7471 26.847 27.2971 27.2971C26.847 27.7471 26.2365 28 25.6 28H6.4C5.104 28 4 26.92 4 25.6V6.4C4 5.76348 4.25286 5.15303 4.70294 4.70294C5.15303 4.25286 5.76348 4 6.4 4Z"></path>
</symbol>
<symbol id="icon-evaluation" viewBox="0 0 32 32">
<path d="M8.8 12H12.4C12.74 12 13.0252 11.872 13.2556 11.616C13.486 11.36 13.6008 11.0436 13.6 10.6667C13.6 10.2889 13.4848 9.972 13.2544 9.716C13.024 9.46 12.7392 9.33245 12.4 9.33333H8.8C8.46 9.33333 8.1748 9.46133 7.9444 9.71733C7.714 9.97333 7.5992 10.2898 7.6 10.6667C7.6 11.0444 7.7152 11.3613 7.9456 11.6173C8.176 11.8733 8.4608 12.0009 8.8 12ZM8.8 17.3333H12.4C12.74 17.3333 13.0252 17.2053 13.2556 16.9493C13.486 16.6933 13.6008 16.3769 13.6 16C13.6 15.6222 13.4848 15.3053 13.2544 15.0493C13.024 14.7933 12.7392 14.6658 12.4 14.6667H8.8C8.46 14.6667 8.1748 14.7947 7.9444 15.0507C7.714 15.3067 7.5992 15.6231 7.6 16C7.6 16.3778 7.7152 16.6947 7.9456 16.9507C8.176 17.2067 8.4608 17.3342 8.8 17.3333ZM8.8 22.6667H12.4C12.74 22.6667 13.0252 22.5387 13.2556 22.2827C13.486 22.0267 13.6008 21.7102 13.6 21.3333C13.6 20.9556 13.4848 20.6387 13.2544 20.3827C13.024 20.1267 12.7392 19.9991 12.4 20H8.8C8.46 20 8.1748 20.128 7.9444 20.384C7.714 20.64 7.5992 20.9564 7.6 21.3333C7.6 21.7111 7.7152 22.028 7.9456 22.284C8.176 22.54 8.4608 22.6676 8.8 22.6667ZM19.06 19.4333C19.22 19.4333 19.37 19.4053 19.51 19.3493C19.65 19.2933 19.78 19.1991 19.9 19.0667L24.16 14.3333C24.42 14.0444 24.5452 13.7276 24.5356 13.3827C24.526 13.0378 24.4008 12.7324 24.16 12.4667C23.92 12.2 23.6348 12.0667 23.3044 12.0667C22.974 12.0667 22.6892 12.2 22.45 12.4667L19.06 16.2333L18.19 15.2667C17.95 15 17.67 14.8724 17.35 14.884C17.03 14.8956 16.75 15.0342 16.51 15.3C16.29 15.5667 16.1748 15.8778 16.1644 16.2333C16.154 16.5889 16.2692 16.9 16.51 17.1667L18.22 19.0667C18.34 19.2 18.47 19.2947 18.61 19.3507C18.75 19.4067 18.9 19.4342 19.06 19.4333ZM6.4 28C5.74 28 5.1748 27.7387 4.7044 27.216C4.234 26.6933 3.9992 26.0658 4 25.3333V6.66667C4 5.93334 4.2352 5.30534 4.7056 4.78267C5.176 4.26 5.7408 3.99911 6.4 4H25.6C26.26 4 26.8252 4.26134 27.2956 4.784C27.766 5.30667 28.0008 5.93422 28 6.66667V25.3333C28 26.0667 27.7648 26.6947 27.2944 27.2173C26.824 27.74 26.2592 28.0009 25.6 28H6.4ZM6.4 25.3333H25.6V6.66667H6.4V25.3333Z"></path>
</symbol>
<symbol id="icon-hamburger" viewBox="0 0 32 32">
<path d="M2.5 4C2.5 3.17157 3.17157 2.5 4 2.5H28C28.8284 2.5 29.5 3.17157 29.5 4C29.5 4.82843 28.8284 5.5 28 5.5H4C3.17157 5.5 2.5 4.82843 2.5 4ZM2.5 16C2.5 15.1716 3.17157 14.5 4 14.5H28C28.8284 14.5 29.5 15.1716 29.5 16C29.5 16.8284 28.8284 17.5 28 17.5H4C3.17157 17.5 2.5 16.8284 2.5 16ZM2.5 28C2.5 27.1716 3.17157 26.5 4 26.5H28C28.8284 26.5 29.5 27.1716 29.5 28C29.5 28.8284 28.8284 29.5 28 29.5H4C3.17157 29.5 2.5 28.8284 2.5 28Z"></path>
</symbol>
<symbol id="icon-cross" viewBox="0 0 32 32">
<path d="M8 6L6 8M6 6l12 12"></path>
</symbol>
<symbol id="icon-checkmark" viewBox="0 0 32 32">
<path d="M28.5001 2.49898L12.0009 24.9982L3.00034 16.9999"></path>
</symbol>
<symbol id="icon-edit" viewBox="0 0 32 32">
<path d="M5.91667 30C5.11459 30 4.42771 29.7256 3.85604 29.1768C3.28438 28.628 2.99903 27.9691 3 27.2V4.8C3 4.03 3.28584 3.3706 3.8575 2.8218C4.42917 2.273 5.11556 1.99907 5.91667 2H17.5833L26.3333 10.4V16H23.4167V11.8H16.125V4.8H5.91667V27.2H14.6667V30H5.91667ZM23.8542 19.535L25.4219 21.04L19.7708 26.43V27.9H21.3021L26.9531 22.51L28.4844 23.98L22.2135 30H17.5833V25.555L23.8542 19.535ZM28.4844 23.98L23.8542 19.535L25.9687 17.505C26.2361 17.2483 26.5764 17.12 26.9896 17.12C27.4028 17.12 27.7431 17.2483 28.0104 17.505L30.599 19.99C30.8663 20.2467 31 20.5733 31 20.97C31 21.3667 30.8663 21.6933 30.599 21.95L28.4844 23.98Z"></path>
</symbol>
<symbol id="icon-trash" viewBox="0 0 32 32">
<path d="M20.24 13.62L16 16.9178L11.74 13.62L8.92 15.8133L13.18 19.1111L8.94 22.4089L11.76 24.6022L16 21.3044L20.24 24.6022L23.06 22.4089L18.82 19.1111L23.06 15.8133L20.24 13.62ZM23 3.55556L21 2H11L9 3.55556H2V6.66667H30V3.55556H23ZM4 26.8889C4 27.714 4.42143 28.5053 5.17157 29.0888C5.92172 29.6722 6.93913 30 8 30H24C25.0609 30 26.0783 29.6722 26.8284 29.0888C27.5786 28.5053 28 27.714 28 26.8889V8.22222H4V26.8889ZM8 11.3333H24V26.8889H8V11.3333Z"></path>
</symbol>
<symbol id="icon-return" viewBox="0 0 32 32">
<path d="M30 7.85116V29H2V24.7702H25.3333V12.0809H18.2505L22.517 15.9512L19.2177 18.9437L9.3185 9.97239L19.2177 1L22.517 3.98833L18.2505 7.85116H30Z"></path>
</symbol>
<symbol id="icon-arrow" viewBox="0 0 32 32">
<path d="M20.016 11.016v1.969h-12.188l5.578 5.625-1.406 1.406-8.016-8.016 8.016-8.016 1.406 1.406-5.578 5.625h12.188z"></path>
</symbol>
<symbol id="icon-add_grid" viewBox="0 0 32 32">
<path d="M12.8684 3C18.3158 3 22.7368 7.94118 22.7368 14.0294V17.7059H28L20.1053 28L12.2105 17.7059H17.4737V14.0294C17.4737 11.1912 15.4079 8.88235 12.8684 8.88235H3V3H12.8684Z"></path>
</symbol>
<symbol id="icon-save" viewBox="0 0 32 32">
<path d="M21 19V5a2 2 0 0 0-2-2H5a2 2 0 0 0-2 2v14h18zm-6-10h-4V3h-4v6H3v10h18V9h-4v6z"></path>
</symbol>
<symbol id="icon-delete" viewBox="0 0 64 64">
  <path d="M49.414 14.586a4 4 0 0 0-5.656 0L32 26.344l-11.758-11.758a4 4 0 1 0-5.656 5.656L26.344 32l-11.758 11.758a4 4 0 0 0 5.656 5.656L32 37.656l11.758 11.758a4 4 0 0 0 5.656-5.656L37.656 32l11.758-11.758a4 4 0 0 0 0-5.656z"></path>
</symbol>

</defs>
</svg>
